ply
format ascii 1.0
comment Created by Blender 3.5.0 - www.blender.org
element vertex 76
property float x
property float y
property float z
property float s
property float t
element face 74
property list uchar uint vertex_indices
end_header
21.837336 81.629852 40.169395 0.422240 0.513180
21.224972 81.629852 40.253941 0.420367 0.514183
20.366587 81.629852 40.169395 0.417499 0.514934
21.561846 81.629852 40.094620 0.421263 0.513268
21.593294 81.629852 40.103790 0.421375 0.513260
24.336197 81.629852 32.742779 0.421435 0.486260
18.780499 81.629852 32.195591 0.402874 0.491123
22.908754 81.629852 31.788994 0.415696 0.484888
19.541189 81.629852 39.919014 0.414540 0.515112
18.780499 81.629852 39.512417 0.411603 0.514709
20.579741 81.629852 39.512417 0.417402 0.512562
20.861128 81.629852 39.734470 0.418574 0.512942
20.380098 81.629852 39.354870 0.416571 0.512293
21.491726 81.629852 40.058578 0.420994 0.513235
21.333233 81.629852 39.977119 0.420386 0.513161
18.113747 81.629852 38.965229 0.408801 0.513740
17.566559 81.629852 38.298477 0.406241 0.512244
19.565037 81.629852 38.298477 0.412683 0.509860
19.757853 81.629852 38.659210 0.413735 0.510793
19.465088 81.629852 38.111488 0.412138 0.509376
19.261915 81.629852 37.537788 0.410799 0.507769
19.397703 81.629852 37.985420 0.411770 0.509050
17.159962 81.629852 37.537788 0.404023 0.510277
19.200937 81.629852 37.336769 0.410362 0.507194
19.122551 81.629852 36.712387 0.409365 0.505275
19.175924 81.629852 37.254314 0.410183 0.506958
16.909580 81.629852 36.712387 0.402231 0.507915
19.101290 81.629852 36.496525 0.409039 0.504605
16.825035 81.629852 35.854004 0.400935 0.505249
19.164072 81.629852 35.854004 0.408475 0.502459
19.101040 81.629852 36.493988 0.409035 0.504597
19.175924 81.629852 35.733665 0.408369 0.502056
19.397703 81.629852 35.002560 0.408212 0.499435
19.210697 81.629852 35.619038 0.408345 0.501645
16.909580 81.629852 34.995621 0.400183 0.502381
19.401413 81.629852 34.995621 0.408216 0.499408
19.539885 81.629852 34.736557 0.408353 0.498408
19.757853 81.629852 34.328770 0.408569 0.496834
17.159962 81.629852 34.170219 0.400006 0.499422
19.887970 81.629852 34.170219 0.408799 0.496167
20.127863 81.629852 33.877907 0.409224 0.494939
20.132105 81.629852 33.872738 0.409231 0.494917
17.566559 81.629852 33.409531 0.400409 0.496485
20.861128 81.629852 33.253510 0.410843 0.492051
20.663418 81.629852 33.409531 0.410392 0.492790
24.324669 81.629852 32.893360 0.421577 0.486759
24.293221 81.629852 32.884186 0.421465 0.486767
18.113747 81.629852 32.742779 0.401377 0.493683
20.246943 81.629852 39.249794 0.416016 0.512113
22.832031 81.629852 32.652851 0.416479 0.487764
22.711641 81.629852 32.656307 0.416095 0.487919
23.669445 81.629852 32.195591 0.418633 0.485291
19.541189 81.629852 31.788994 0.404841 0.488905
22.083357 81.629852 31.538612 0.412737 0.485066
20.366587 81.629852 31.538612 0.407203 0.487114
21.224972 81.629852 31.454067 0.409869 0.485817
21.903303 81.629852 40.187130 0.422474 0.513158
20.132105 81.629852 39.115238 0.415486 0.511816
20.225733 81.629852 39.224941 0.415918 0.512058
20.246943 81.629852 33.738186 0.409441 0.494346
21.266600 81.629852 33.045109 0.411901 0.490896
23.919765 81.629852 32.783794 0.420141 0.486888
24.558338 81.629852 33.013458 0.422474 0.486867
23.780121 81.629852 32.746254 0.419647 0.486934
23.502430 81.629852 32.680824 0.418673 0.487054
21.561846 81.629852 32.893360 0.412672 0.490055
23.454638 81.629852 32.671581 0.418508 0.487082
21.593294 81.629852 32.884186 0.412762 0.489987
22.106396 81.629852 32.746254 0.414252 0.488931
23.316885 81.629852 32.662933 0.418054 0.487218
23.174875 81.629852 32.656307 0.417588 0.487366
22.384085 81.629852 32.680824 0.415069 0.488389
22.431877 81.629852 32.671581 0.415212 0.488302
23.054485 81.629852 32.652851 0.417196 0.487499
22.943258 81.629852 32.651772 0.416837 0.487628
22.569630 81.629852 32.662933 0.415645 0.488110
3 0 1 2
3 2 3 4
3 5 6 7
3 8 9 2
3 2 10 11
3 10 9 12
3 13 2 14
3 9 15 16
3 9 17 18
3 17 16 19
3 16 20 21
3 20 22 23
3 22 24 25
3 24 26 27
3 28 29 30
3 28 31 29
3 32 33 34
3 35 34 36
3 37 36 38
3 39 38 40
3 41 40 42
3 42 43 44
3 5 45 46
3 47 6 42
3 9 48 12
3 6 49 50
3 5 7 51
3 7 6 52
3 53 7 52
3 53 52 54
3 55 53 54
3 0 56 1
3 4 0 2
3 2 13 3
3 11 14 2
3 2 9 10
3 57 58 9
3 9 16 17
3 18 57 9
3 21 19 16
3 16 22 20
3 25 23 22
3 22 26 24
3 30 27 26
3 26 28 30
3 28 33 31
3 28 34 33
3 34 35 32
3 34 38 36
3 38 39 37
3 38 42 40
3 42 44 59
3 42 59 41
3 42 60 43
3 46 61 5
3 5 62 45
3 9 58 48
3 5 61 63
3 5 63 64
3 60 42 6
3 65 60 6
3 5 64 66
3 6 5 66
3 67 65 6
3 68 67 6
3 6 66 69
3 6 69 70
3 71 68 6
3 72 71 6
3 6 70 73
3 6 73 74
3 75 72 6
3 50 75 6
3 6 74 49
