ply
format ascii 1.0
comment Created by Blender 3.5.0 - www.blender.org
element vertex 251
property float x
property float y
property float z
property float s
property float t
element face 232
property list uchar uint vertex_indices
end_header
-21.337296 -26.427340 2.611950 0.095826 0.572755
-23.901417 -26.427340 0.000000 0.010234 0.602839
-21.337296 -26.427340 0.000000 0.010234 0.572755
-21.337296 -26.427340 2.611950 0.108522 0.588380
-23.901417 -25.392687 5.703695 0.209846 0.618464
-23.901417 -26.427340 2.611950 0.108522 0.618464
-21.337296 -31.111879 0.000000 0.687629 0.210548
-23.901417 -31.111879 -2.611950 0.985518 0.188220
-21.337296 -31.111879 -2.611950 0.985518 0.210548
-23.901417 -26.427340 0.000000 0.368335 0.222988
-21.337296 -31.111879 0.000000 0.359153 0.272698
-21.337296 -26.427340 0.000000 0.359153 0.222988
-23.901417 -26.427340 -2.611950 0.183026 0.316991
-23.901417 -31.111879 0.000000 0.107336 0.364724
-23.901417 -26.427340 0.000000 0.107336 0.316991
0.000000 -26.427340 -2.611950 0.282743 0.534980
-16.203047 -31.111879 -2.611950 0.233848 0.576869
-16.203047 -26.427340 -2.611950 0.233848 0.534980
0.000000 -23.282930 -2.611950 0.282743 0.506863
-16.203047 -23.282930 -2.611950 0.233848 0.506863
-21.337296 -23.282930 -2.611950 0.218354 0.506863
-23.901417 -26.427340 -2.611950 0.210617 0.534980
-23.901417 -23.282930 -2.611950 0.210617 0.506863
-19.539854 -26.427340 -2.611950 0.223778 0.534980
-19.539854 -23.282930 -2.611950 0.223778 0.506863
-21.337296 -26.427340 -2.611950 0.218354 0.534980
-23.901417 -31.111879 -2.611950 0.210617 0.576869
-19.539854 -31.111879 -2.611950 0.223778 0.576869
-16.203047 -26.427340 0.000000 0.340767 0.222988
0.000000 -31.111879 0.000000 0.282743 0.272698
0.000000 -26.427340 0.000000 0.282743 0.222988
-19.539854 -31.111879 0.000000 0.352716 0.272698
-19.539854 -26.427340 0.000000 0.352716 0.222988
0.000000 -31.111879 0.000000 0.687629 0.396343
-16.203047 -31.111879 -2.611950 0.985518 0.255254
0.000000 -31.111879 -2.611950 0.985518 0.396343
-19.539854 -31.111879 0.000000 0.687629 0.226199
-19.539854 -31.111879 -2.611950 0.985518 0.226199
-16.203047 -23.282930 2.611950 0.652184 0.255254
0.000000 -26.427340 2.611950 0.687629 0.396343
0.000000 -23.282930 2.611950 0.652184 0.396343
-19.539854 -23.282930 2.611950 0.652184 0.226199
-21.337296 -26.427340 2.611950 0.687629 0.210548
-19.539854 -26.427340 2.611950 0.687629 0.226199
0.000000 -26.427340 2.611950 0.095826 0.322408
-16.203047 -26.427340 0.000000 0.010234 0.512515
0.000000 -26.427340 0.000000 0.010234 0.322408
-19.539854 -26.427340 2.611950 0.095826 0.551665
-19.539854 -26.427340 0.000000 0.010234 0.551665
-16.203047 -2.381789 2.611950 0.013680 0.890786
-19.539854 -2.381789 20.439421 0.517995 0.952358
-19.539854 -2.381789 2.611950 0.013680 0.952358
-16.203047 0.000000 2.611950 0.389738 0.255254
0.000000 -2.381789 2.611950 0.416585 0.396343
0.000000 0.000000 2.611950 0.389738 0.396343
-16.203047 0.000000 -2.611950 0.233848 0.298668
-19.539854 -2.381789 -2.611950 0.223778 0.319966
-19.539854 0.000000 -2.611950 0.223778 0.298668
-21.337296 0.000000 -2.611950 0.218354 0.298668
-23.901417 -2.381789 -2.611950 0.210617 0.319966
-23.901417 0.000000 -2.611950 0.210617 0.298668
0.000000 0.000000 -2.611950 0.282743 0.298668
-16.203047 -2.381789 -2.611950 0.233848 0.319966
-23.901417 -23.282930 0.000000 0.942643 0.089362
-23.901417 -2.381789 -2.611950 0.713768 0.017144
-23.901417 -23.282930 -2.611950 0.942643 0.017144
-23.901417 0.000000 2.611950 0.389738 0.188220
-21.337296 -2.381789 2.611950 0.416585 0.210548
-21.337296 0.000000 2.611950 0.389738 0.210548
-23.901417 -19.673931 2.611950 0.903123 0.161579
-23.901417 -2.381789 0.000000 0.713768 0.089362
-21.337296 0.000000 18.015448 0.449398 0.796046
-19.539854 -2.381789 20.439421 0.518028 0.756297
-19.539854 0.000000 20.439421 0.518028 0.796046
-21.337296 -2.381789 2.611950 0.013680 0.756298
-21.337296 0.000000 2.611950 0.013680 0.796046
-16.203047 -2.381789 20.439421 0.517995 0.890786
-19.539854 -2.381789 32.982029 0.872809 0.952358
-21.337296 -2.381789 -2.611950 0.218354 0.319966
-21.337296 -2.381789 18.015448 0.449424 0.985525
-21.337296 -2.381789 2.611950 0.013680 0.985525
-16.203047 -26.427340 2.611950 0.095826 0.512515
-16.203047 -26.427340 2.611950 0.687629 0.255254
-16.203047 -31.111879 0.000000 0.687629 0.255254
-16.203047 -31.111879 0.000000 0.340767 0.272698
-21.337296 -31.111879 -2.611950 0.218354 0.576869
-19.539854 0.000000 32.982029 0.872820 0.796047
-16.203047 -2.381789 37.114269 0.989825 0.756298
-16.203047 0.000000 37.114269 0.989825 0.796047
-16.203047 0.000000 20.439421 0.517965 0.676799
-16.203047 -2.381789 37.114269 0.989647 0.716548
-16.203047 -2.381789 20.439421 0.517965 0.716548
-16.203047 0.000000 2.611950 0.013680 0.676799
-16.203047 -2.381789 2.611950 0.013680 0.716548
-23.901417 -2.381789 2.611950 0.713767 0.161579
-23.901417 0.000000 0.000000 0.687686 0.089362
-23.901417 0.000000 -2.611950 0.687686 0.017144
-19.539854 -2.381789 2.611950 0.416585 0.226199
-16.203047 -2.381789 2.611950 0.416585 0.255254
-23.901417 -26.427340 2.611950 0.977075 0.161579
-23.901417 -26.427340 0.000000 0.977075 0.089362
-23.901417 -26.427340 -2.611950 0.977075 0.017144
-21.337296 -19.673931 2.611950 0.611504 0.210548
0.000000 -2.381789 -2.611950 0.282743 0.319966
-23.901417 -2.381789 2.611950 0.416585 0.188220
-23.901417 -21.900393 5.703695 0.151560 0.228421
-21.337296 -25.392687 5.703695 0.178998 0.301400
-21.337296 -21.900393 5.703695 0.151560 0.301400
-23.901417 -19.673931 2.611950 0.182685 0.446654
-21.337296 -21.900393 5.703695 0.151484 0.543671
-21.337296 -19.673931 2.611950 0.151484 0.446654
-23.901417 -26.427340 2.611950 0.187925 0.207314
-23.901417 -21.900393 5.703695 0.158874 0.094311
-23.901417 -19.673931 2.611950 0.144587 0.207314
-21.337296 -26.427340 2.611950 0.219465 0.195437
-21.337296 -21.900393 5.703695 0.360129 0.128739
-21.337296 -25.392687 5.703695 0.360129 0.180193
23.901417 -26.427340 0.000000 0.010234 0.041976
21.337296 -26.427340 2.611950 0.095826 0.072061
21.337296 -26.427340 0.000000 0.010234 0.072061
23.901417 -25.392687 5.703695 0.208869 0.032211
21.337296 -26.427340 2.611950 0.107545 0.062295
23.901417 -26.427340 2.611950 0.107545 0.032211
23.901417 -31.111879 -2.611950 0.985518 0.604465
21.337296 -31.111879 0.000000 0.687629 0.582138
21.337296 -31.111879 -2.611950 0.985518 0.582138
21.337296 -31.111879 0.000000 0.206333 0.272698
23.901417 -26.427340 0.000000 0.197151 0.222988
21.337296 -26.427340 0.000000 0.206333 0.222988
23.901417 -31.111879 0.000000 0.184258 0.431307
23.901417 -26.427340 -2.611950 0.108569 0.383574
23.901417 -26.427340 0.000000 0.184258 0.383574
16.203047 -31.111879 -2.611950 0.331638 0.576869
16.203047 -26.427340 -2.611950 0.331638 0.534980
16.203047 -23.282930 -2.611950 0.331638 0.506863
23.901417 -26.427340 -2.611950 0.354869 0.534980
21.337296 -23.282930 -2.611950 0.347132 0.506863
23.901417 -23.282930 -2.611950 0.354869 0.506863
19.539854 -26.427340 -2.611950 0.341708 0.534980
19.539854 -23.282930 -2.611950 0.341708 0.506863
23.901417 -31.111879 -2.611950 0.354869 0.576869
21.337296 -26.427340 -2.611950 0.347132 0.534980
19.539854 -31.111879 -2.611950 0.341708 0.576869
16.203047 -26.427340 0.000000 0.224719 0.222988
19.539854 -31.111879 0.000000 0.212770 0.272698
19.539854 -26.427340 0.000000 0.212770 0.222988
16.203047 -31.111879 -2.611950 0.985518 0.537431
19.539854 -31.111879 0.000000 0.687629 0.566486
19.539854 -31.111879 -2.611950 0.985518 0.566486
16.203047 -23.282930 2.611950 0.652184 0.537431
19.539854 -23.282930 2.611950 0.652184 0.566486
21.337296 -26.427340 2.611950 0.687628 0.582138
21.337296 -19.673931 2.611950 0.611504 0.582138
16.203047 -26.427340 0.000000 0.010234 0.132300
19.539854 -26.427340 2.611950 0.095826 0.093150
19.539854 -26.427340 0.000000 0.010234 0.093150
19.539854 -2.381789 20.439421 0.485389 0.857619
16.203047 -2.381789 2.611950 0.989705 0.796047
19.539854 -2.381789 2.611950 0.989705 0.857619
16.203047 0.000000 2.611950 0.389738 0.537431
19.539854 -2.381789 -2.611950 0.341708 0.319966
16.203047 0.000000 -2.611950 0.331638 0.298668
19.539854 0.000000 -2.611950 0.341708 0.298668
23.901417 -2.381789 -2.611950 0.354869 0.319966
21.337296 0.000000 -2.611950 0.347132 0.298668
23.901417 0.000000 -2.611950 0.354869 0.298668
16.203047 -2.381789 -2.611950 0.331638 0.319966
23.901417 -2.381789 -2.611950 0.661604 0.017144
23.901417 -23.282930 0.000000 0.432729 0.089362
23.901417 -23.282930 -2.611950 0.432729 0.017144
21.337296 -2.381789 2.611950 0.416585 0.582138
23.901417 0.000000 2.611950 0.389738 0.604465
21.337296 0.000000 2.611950 0.389738 0.582138
23.901417 -2.381789 0.000000 0.661604 0.089362
23.901417 -19.673931 2.611950 0.472249 0.161579
19.539854 -2.381789 20.439421 0.518028 0.756297
21.337296 0.000000 18.015448 0.449398 0.716548
19.539854 0.000000 20.439421 0.518028 0.716549
21.337296 -2.381789 2.611950 0.013680 0.756297
21.337296 0.000000 2.611950 0.013680 0.716548
19.539854 -2.381789 32.982029 0.130575 0.857619
16.203047 -2.381789 20.439421 0.485389 0.796047
21.337296 -2.381789 -2.611950 0.347132 0.319966
21.337296 -2.381789 18.015448 0.553960 0.890786
21.337296 -2.381789 2.611950 0.989705 0.890786
16.203047 -26.427340 2.611950 0.095826 0.132300
16.203047 -26.427340 2.611950 0.687629 0.537431
16.203047 -31.111879 0.000000 0.687629 0.537431
16.203047 -31.111879 0.000000 0.224719 0.272698
21.337296 -31.111879 -2.611950 0.347132 0.576869
16.203047 -2.381789 37.114269 0.989825 0.756297
19.539854 0.000000 32.982029 0.872820 0.716549
16.203047 0.000000 37.114269 0.989825 0.716549
16.203047 -2.381789 37.114269 0.989647 0.637050
16.203047 0.000000 20.439421 0.517965 0.676798
16.203047 -2.381789 20.439421 0.517965 0.637049
16.203047 0.000000 2.611950 0.013680 0.676798
16.203047 -2.381789 2.611950 0.013680 0.637049
23.901417 0.000000 0.000000 0.687686 0.089362
23.901417 -2.381789 2.611950 0.661604 0.161579
23.901417 0.000000 -2.611950 0.687686 0.017144
19.539854 -2.381789 2.611950 0.416585 0.566486
16.203047 -2.381789 2.611950 0.416585 0.537431
23.901417 -26.427340 2.611950 0.398297 0.161579
23.901417 -26.427340 0.000000 0.398297 0.089362
23.901417 -26.427340 -2.611950 0.398297 0.017144
23.901417 -2.381789 2.611950 0.416585 0.604465
21.337296 -25.392687 5.703695 0.136357 0.227962
23.901417 -21.900393 5.703695 0.108919 0.300942
21.337296 -21.900393 5.703695 0.108919 0.227962
21.337296 -21.900393 5.703695 0.107328 0.443238
23.901417 -19.673931 2.611950 0.137413 0.544810
21.337296 -19.673931 2.611950 0.107328 0.544810
23.901417 -21.900393 5.703695 0.136609 0.205762
23.901417 -26.427340 2.611950 0.107559 0.092759
23.901417 -19.673931 2.611950 0.150897 0.092759
21.337296 -26.427340 2.611950 0.360129 0.015417
21.337296 -21.900393 5.703695 0.219465 0.082115
21.337296 -19.673931 2.611950 0.360129 0.114918
-23.901417 -26.427340 2.611950 0.095827 0.602839
-21.337296 -25.392687 5.703695 0.209846 0.588380
-23.901417 -31.111879 0.000000 0.687629 0.188220
-23.901417 -31.111879 0.000000 0.368335 0.272698
-23.901417 -31.111879 -2.611950 0.183026 0.364724
0.000000 -31.111879 -2.611950 0.282743 0.576869
-21.337296 -2.381789 18.015448 0.449398 0.756297
-16.203047 -2.381789 37.114269 0.989705 0.890786
-19.539854 -2.381789 32.982029 0.872820 0.756298
-16.203047 0.000000 37.114269 0.989647 0.676799
-23.901417 0.000000 2.611950 0.687686 0.161579
-23.901417 -19.673931 2.611950 0.611504 0.188220
-23.901417 -25.392687 5.703695 0.178998 0.228421
-23.901417 -21.900393 5.703695 0.182685 0.543671
-23.901417 -25.392687 5.703695 0.181285 0.094311
-21.337296 -19.673931 2.611950 0.219465 0.095935
23.901417 -26.427340 2.611950 0.095826 0.041976
21.337296 -25.392687 5.703695 0.208869 0.062295
23.901417 -31.111879 0.000000 0.687629 0.604465
23.901417 -31.111879 0.000000 0.197151 0.272698
23.901417 -31.111879 -2.611950 0.108569 0.431307
19.539854 -26.427340 2.611950 0.687628 0.566486
21.337296 -2.381789 18.015448 0.449398 0.756297
16.203047 -2.381789 37.114269 0.013680 0.796047
19.539854 -2.381789 32.982029 0.872820 0.756297
16.203047 0.000000 37.114269 0.989647 0.676799
23.901417 0.000000 2.611950 0.687686 0.161579
23.901417 -19.673931 2.611950 0.611504 0.604465
23.901417 -25.392687 5.703695 0.136357 0.300942
23.901417 -21.900393 5.703695 0.137413 0.443238
23.901417 -25.392687 5.703695 0.114198 0.205762
21.337296 -25.392687 5.703695 0.219465 0.030661
3 0 1 2
3 3 4 5
3 6 7 8
3 9 10 11
3 12 13 14
3 15 16 17
3 18 17 19
3 20 21 22
3 19 23 24
3 25 26 21
3 17 27 23
3 28 29 30
3 11 31 32
3 33 34 35
3 36 8 37
3 38 39 40
3 41 42 43
3 44 45 46
3 47 2 48
3 49 50 51
3 52 53 54
3 55 56 57
3 58 59 60
3 61 62 55
3 63 64 65
3 66 67 68
3 69 70 63
3 71 72 73
3 74 71 75
3 76 77 50
3 57 78 58
3 51 79 80
3 81 48 45
3 41 82 38
3 83 37 34
3 32 84 28
3 23 85 25
3 24 25 20
3 86 87 88
3 72 86 73
3 89 90 91
3 92 91 93
3 94 95 70
3 70 96 64
3 56 20 78
3 97 38 98
3 99 63 100
3 100 65 101
3 97 102 41
3 98 40 53
3 62 24 56
3 78 22 59
3 103 19 62
3 104 102 67
3 105 106 107
3 108 109 110
3 111 112 113
3 114 115 116
3 117 118 119
3 120 121 122
3 123 124 125
3 126 127 128
3 129 130 131
3 132 15 133
3 133 18 134
3 135 136 137
3 138 134 139
3 140 141 135
3 142 133 138
3 29 143 30
3 144 128 145
3 146 33 35
3 125 147 148
3 39 149 40
3 150 151 152
3 153 44 46
3 119 154 155
3 156 157 158
3 53 159 54
3 160 161 162
3 163 164 165
3 166 61 161
3 167 168 169
3 170 171 172
3 173 174 168
3 175 176 177
3 176 178 179
3 180 181 156
3 182 162 164
3 183 158 184
3 155 185 153
3 186 150 149
3 148 187 146
3 188 145 143
3 189 138 141
3 141 139 136
3 190 191 192
3 191 175 177
3 193 194 195
3 195 196 197
3 198 199 173
3 200 173 167
3 136 160 182
3 149 201 202
3 168 203 204
3 169 204 205
3 201 152 170
3 40 202 53
3 139 166 160
3 137 182 163
3 134 103 166
3 152 206 170
3 207 208 209
3 210 211 212
3 213 214 215
3 216 217 218
3 0 219 1
3 3 220 4
3 6 221 7
3 9 222 10
3 12 223 13
3 15 224 16
3 18 15 17
3 20 25 21
3 19 17 23
3 25 85 26
3 17 16 27
3 28 84 29
3 11 10 31
3 33 83 34
3 36 6 8
3 38 82 39
3 41 102 42
3 44 81 45
3 47 0 2
3 49 76 50
3 52 98 53
3 55 62 56
3 58 78 59
3 61 103 62
3 63 70 64
3 66 104 67
3 69 94 70
3 71 225 72
3 74 225 71
3 76 226 77
3 57 56 78
3 51 50 79
3 81 47 48
3 41 43 82
3 83 36 37
3 32 31 84
3 23 27 85
3 24 23 25
3 86 227 87
3 72 227 86
3 89 228 90
3 92 89 91
3 94 229 95
3 70 95 96
3 56 24 20
3 97 41 38
3 99 69 63
3 100 63 65
3 97 67 102
3 98 38 40
3 62 19 24
3 78 20 22
3 103 18 19
3 104 230 102
3 105 231 106
3 108 232 109
3 111 233 112
3 114 234 115
3 117 235 118
3 120 236 121
3 123 237 124
3 126 238 127
3 129 239 130
3 132 224 15
3 133 15 18
3 135 141 136
3 138 133 134
3 140 189 141
3 142 132 133
3 29 188 143
3 144 126 128
3 146 187 33
3 125 124 147
3 39 186 149
3 150 240 151
3 153 185 44
3 119 118 154
3 156 181 157
3 53 202 159
3 160 166 161
3 163 182 164
3 166 103 61
3 167 173 168
3 170 206 171
3 173 199 174
3 175 241 176
3 176 241 178
3 180 242 181
3 182 160 162
3 183 156 158
3 155 154 185
3 186 240 150
3 148 147 187
3 188 144 145
3 189 142 138
3 141 138 139
3 190 243 191
3 191 243 175
3 193 244 194
3 195 194 196
3 198 245 199
3 200 198 173
3 136 139 160
3 149 150 201
3 168 174 203
3 169 168 204
3 201 150 152
3 40 149 202
3 139 134 166
3 137 136 182
3 134 18 103
3 152 246 206
3 207 247 208
3 210 248 211
3 213 249 214
3 216 250 217
