ply
format ascii 1.0
comment Created by Blender 3.5.0 - www.blender.org
element vertex 32
property float x
property float y
property float z
property float s
property float t
element face 30
property list uchar uint vertex_indices
end_header
-18.858164 81.629974 41.617168 0.418913 0.494430
-19.716549 81.629974 41.701714 0.419800 0.496570
-20.574934 81.629974 41.617168 0.420252 0.498842
-18.032766 81.629974 41.366787 0.417626 0.492503
-16.605324 81.629974 34.190552 0.398070 0.494430
-22.161022 81.629974 33.643364 0.400995 0.509134
-18.032766 81.629974 33.236767 0.396732 0.498842
-21.400331 81.629974 41.366787 0.420252 0.501158
-22.161022 81.629974 40.960190 0.419800 0.503430
-17.272076 81.629974 40.960190 0.415988 0.490866
-16.605324 81.629974 40.413002 0.414062 0.489579
-22.827774 81.629974 40.413002 0.418913 0.505570
-23.374962 81.629974 39.746250 0.417626 0.507496
-16.058136 81.629974 39.746250 0.411922 0.488692
-15.651539 81.629974 38.985558 0.409650 0.488240
-23.781559 81.629974 38.985558 0.415988 0.509134
-15.401157 81.629974 38.160160 0.407333 0.488240
-24.031940 81.629974 38.160160 0.414062 0.510421
-15.316612 81.629974 37.301777 0.405062 0.488692
-24.116486 81.629974 37.301777 0.411922 0.511308
-15.401157 81.629974 36.443394 0.402921 0.489579
-24.031940 81.629974 36.443394 0.409650 0.511760
-15.651539 81.629974 35.617996 0.400995 0.490866
-23.781559 81.629974 35.617996 0.407333 0.511760
-16.058136 81.629974 34.857304 0.399357 0.492504
-23.374962 81.629974 34.857304 0.405062 0.511308
-22.827774 81.629974 34.190552 0.402921 0.510421
-17.272076 81.629974 33.643364 0.397184 0.496570
-21.400331 81.629974 33.236767 0.399357 0.507496
-18.858164 81.629974 32.986385 0.396732 0.501158
-20.574934 81.629974 32.986385 0.398070 0.505570
-19.716549 81.629974 32.901840 0.397184 0.503430
3 0 1 2
3 3 0 2
3 4 5 6
3 2 7 8
3 9 2 8
3 10 9 8
3 9 3 2
3 8 11 12
3 13 8 12
3 14 13 12
3 14 12 15
3 16 14 15
3 16 15 17
3 18 16 17
3 18 17 19
3 20 18 19
3 20 19 21
3 22 20 21
3 22 21 23
3 24 22 23
3 24 23 25
3 4 24 25
3 26 5 25
3 13 10 8
3 5 4 25
3 27 4 6
3 6 5 28
3 29 6 28
3 29 28 30
3 31 29 30
